<svg width="35" height="35" viewBox="0 0 35 35" fill="none" xmlns="http://www.w3.org/2000/svg">
<path d="M18.0045 11.8723C15.1661 11.8723 12.8767 14.1617 12.8767 17C12.8767 19.8383 15.1661 22.1277 18.0045 22.1277C20.8428 22.1277 23.1322 19.8383 23.1322 17C23.1322 14.1617 20.8428 11.8723 18.0045 11.8723ZM18.0045 20.3337C16.1703 20.3337 14.6708 18.8387 14.6708 17C14.6708 15.1613 16.1658 13.6663 18.0045 13.6663C19.8431 13.6663 21.3382 15.1613 21.3382 17C21.3382 18.8387 19.8387 20.3337 18.0045 20.3337V20.3337ZM24.538 11.6625C24.538 12.3275 24.0025 12.8585 23.342 12.8585C22.677 12.8585 22.1459 12.323 22.1459 11.6625C22.1459 11.002 22.6815 10.4665 23.342 10.4665C24.0025 10.4665 24.538 11.002 24.538 11.6625ZM27.9342 12.8764C27.8583 11.2742 27.4924 9.85507 26.3186 8.68582C25.1494 7.51657 23.7302 7.15062 22.1281 7.07029C20.4769 6.97657 15.5276 6.97657 13.8764 7.07029C12.2787 7.14616 10.8595 7.51211 9.68582 8.68136C8.51211 9.85061 8.15062 11.2698 8.07029 12.8719C7.97657 14.5232 7.97657 19.4724 8.07029 21.1236C8.14616 22.7258 8.51211 24.1449 9.68582 25.3142C10.8595 26.4834 12.2742 26.8494 13.8764 26.9297C15.5276 27.0234 20.4769 27.0234 22.1281 26.9297C23.7302 26.8538 25.1494 26.4879 26.3186 25.3142C27.4879 24.1449 27.8538 22.7258 27.9342 21.1236C28.0279 19.4724 28.0279 14.5276 27.9342 12.8764V12.8764ZM25.801 22.8953C25.4529 23.7701 24.779 24.4439 23.8998 24.7965C22.5833 25.3186 19.4593 25.1981 18.0045 25.1981C16.5496 25.1981 13.4212 25.3142 12.1091 24.7965C11.2344 24.4484 10.5605 23.7745 10.208 22.8953C9.68582 21.5788 9.80632 18.4549 9.80632 17C9.80632 15.5451 9.69028 12.4167 10.208 11.1047C10.5561 10.2299 11.2299 9.55606 12.1091 9.2035C13.4256 8.68136 16.5496 8.80185 18.0045 8.80185C19.4593 8.80185 22.5878 8.68582 23.8998 9.2035C24.7745 9.5516 25.4484 10.2255 25.801 11.1047C26.3231 12.4212 26.2026 15.5451 26.2026 17C26.2026 18.4549 26.3231 21.5833 25.801 22.8953Z" fill="black"/>
</svg>
