<svg viewBox="0 0 563 316" fill="none" xmlns="http://www.w3.org/2000/svg">
<rect width="563" height="316" fill="#60C6FF"/>
<path d="M168.267 176.493C166.395 176.493 165.057 176.122 164.255 175.379C163.453 174.636 163.052 173.572 163.052 172.187C163.052 171.444 163.119 170.126 163.252 168.235C163.386 166.343 163.536 164.215 163.704 161.851H154.778L153.775 175.733C153.742 176.004 153.675 176.206 153.575 176.341C153.474 176.443 153.274 176.493 152.973 176.493H150.215C148.343 176.493 147.006 176.122 146.203 175.379C145.401 174.636 145 173.572 145 172.187C145 171.511 145.05 170.363 145.15 168.741C145.251 167.086 145.384 165.212 145.552 163.117C145.719 161.023 145.886 158.811 146.053 156.48C146.22 154.149 146.387 151.954 146.554 149.893C146.722 147.833 146.855 146.026 146.956 144.472C147.056 142.918 147.106 141.854 147.106 141.28C147.106 140.773 147.373 140.52 147.908 140.52H150.666C152.705 140.52 154.076 140.959 154.778 141.837C155.48 142.716 155.831 144.016 155.831 145.739C155.831 146.009 155.781 146.972 155.681 148.627C155.58 150.248 155.447 152.207 155.279 154.504H164.255C164.355 153.018 164.456 151.565 164.556 150.147C164.69 148.728 164.79 147.428 164.857 146.245C164.957 145.063 165.024 144.05 165.057 143.205C165.124 142.327 165.158 141.685 165.158 141.28C165.158 140.773 165.425 140.52 165.96 140.52H168.718C170.757 140.52 172.128 140.959 172.83 141.837C173.532 142.716 173.883 144.016 173.883 145.739C173.883 145.908 173.849 146.448 173.782 147.36C173.749 148.272 173.682 149.42 173.582 150.805C173.482 152.19 173.365 153.744 173.231 155.467C173.131 157.156 173.014 158.895 172.88 160.685C172.78 162.476 172.663 164.232 172.529 165.955C172.429 167.644 172.328 169.18 172.228 170.565C172.128 171.95 172.044 173.116 171.977 174.061C171.91 174.973 171.86 175.531 171.827 175.733C171.793 176.004 171.727 176.206 171.626 176.341C171.526 176.443 171.325 176.493 171.025 176.493H168.267Z" fill="#0094FF"/>
<path d="M189.625 177C188.154 177 186.683 176.814 185.212 176.443C183.775 176.071 182.471 175.429 181.301 174.517C180.165 173.605 179.229 172.389 178.493 170.869C177.758 169.349 177.39 167.441 177.39 165.144C177.39 164.3 177.457 163.286 177.591 162.104C177.724 160.922 177.975 159.706 178.343 158.456C178.744 157.206 179.279 155.973 179.947 154.757C180.649 153.508 181.552 152.393 182.655 151.413C183.758 150.434 185.095 149.64 186.667 149.032C188.238 148.424 190.11 148.12 192.283 148.12C194.021 148.12 195.492 148.323 196.695 148.728C197.899 149.133 198.868 149.691 199.604 150.4C200.339 151.076 200.874 151.869 201.208 152.781C201.543 153.693 201.71 154.673 201.71 155.72C201.71 157.274 201.392 158.591 200.757 159.672C200.155 160.753 199.353 161.665 198.35 162.408C197.381 163.117 196.294 163.675 195.091 164.08C193.887 164.485 192.701 164.806 191.531 165.043C190.361 165.245 189.274 165.38 188.271 165.448C187.302 165.482 186.55 165.499 186.015 165.499C186.015 166.14 186.098 166.782 186.265 167.424C186.466 168.032 186.75 168.572 187.118 169.045C187.486 169.518 187.97 169.907 188.572 170.211C189.174 170.515 189.909 170.667 190.778 170.667C191.648 170.667 192.316 170.532 192.784 170.261C193.286 169.957 193.687 169.636 193.988 169.299C194.288 168.927 194.539 168.606 194.74 168.336C194.974 168.032 195.275 167.88 195.642 167.88C195.81 167.88 196.094 167.931 196.495 168.032C196.929 168.1 197.364 168.268 197.799 168.539C198.233 168.809 198.618 169.18 198.952 169.653C199.286 170.126 199.453 170.734 199.453 171.477C199.453 172.457 199.152 173.301 198.551 174.011C197.949 174.72 197.163 175.294 196.194 175.733C195.258 176.172 194.205 176.493 193.035 176.696C191.865 176.899 190.728 177 189.625 177ZM190.578 154.859C189.842 154.859 189.207 155.078 188.672 155.517C188.171 155.923 187.736 156.446 187.369 157.088C187.034 157.73 186.767 158.439 186.566 159.216C186.399 159.993 186.265 160.736 186.165 161.445C188.238 161.412 189.909 161.057 191.18 160.381C192.483 159.706 193.135 158.743 193.135 157.493C193.135 156.818 192.918 156.21 192.483 155.669C192.082 155.129 191.447 154.859 190.578 154.859Z" fill="#0094FF"/>
<path d="M210.546 176.949C208.474 176.949 206.986 176.392 206.084 175.277C205.181 174.163 204.73 172.322 204.73 169.755C204.73 169.349 204.746 168.843 204.78 168.235C204.847 167.627 204.914 166.85 204.98 165.904C205.081 164.924 205.198 163.725 205.331 162.307C205.465 160.888 205.599 159.165 205.733 157.139C205.9 155.112 206.067 152.731 206.234 149.995C206.435 147.259 206.635 144.084 206.836 140.469C206.869 139.726 206.953 139.287 207.086 139.152C207.187 139.051 207.454 139 207.889 139H209.844C210.847 139 211.683 139.118 212.352 139.355C213.02 139.591 213.555 139.912 213.956 140.317C214.357 140.723 214.641 141.196 214.809 141.736C214.976 142.243 215.059 142.783 215.059 143.357C215.059 144.033 215.009 145.012 214.909 146.296C214.842 147.546 214.742 148.964 214.608 150.552C214.474 152.14 214.341 153.795 214.207 155.517C214.073 157.24 213.939 158.895 213.806 160.483C213.672 162.036 213.555 163.438 213.455 164.688C213.388 165.938 213.354 166.884 213.354 167.525C213.354 168.404 213.505 169.028 213.806 169.4C214.14 169.772 214.491 170.042 214.859 170.211C215.226 170.346 215.561 170.447 215.862 170.515C216.196 170.548 216.363 170.65 216.363 170.819C216.363 171.562 216.279 172.305 216.112 173.048C215.945 173.757 215.644 174.416 215.21 175.024C214.775 175.598 214.173 176.071 213.405 176.443C212.669 176.78 211.716 176.949 210.546 176.949Z" fill="#0094FF"/>
<path d="M225.678 176.949C223.605 176.949 222.117 176.392 221.215 175.277C220.312 174.163 219.861 172.322 219.861 169.755C219.861 169.349 219.878 168.843 219.911 168.235C219.978 167.627 220.045 166.85 220.112 165.904C220.212 164.924 220.329 163.725 220.463 162.307C220.596 160.888 220.73 159.165 220.864 157.139C221.031 155.112 221.198 152.731 221.365 149.995C221.566 147.259 221.766 144.084 221.967 140.469C222 139.726 222.084 139.287 222.218 139.152C222.318 139.051 222.585 139 223.02 139H224.976C225.978 139 226.814 139.118 227.483 139.355C228.151 139.591 228.686 139.912 229.087 140.317C229.489 140.723 229.773 141.196 229.94 141.736C230.107 142.243 230.191 142.783 230.191 143.357C230.191 144.033 230.14 145.012 230.04 146.296C229.973 147.546 229.873 148.964 229.739 150.552C229.606 152.14 229.472 153.795 229.338 155.517C229.204 157.24 229.071 158.895 228.937 160.483C228.803 162.036 228.686 163.438 228.586 164.688C228.519 165.938 228.486 166.884 228.486 167.525C228.486 168.404 228.636 169.028 228.937 169.4C229.271 169.772 229.622 170.042 229.99 170.211C230.358 170.346 230.692 170.447 230.993 170.515C231.327 170.548 231.494 170.65 231.494 170.819C231.494 171.562 231.411 172.305 231.244 173.048C231.076 173.757 230.776 174.416 230.341 175.024C229.906 175.598 229.305 176.071 228.536 176.443C227.8 176.78 226.848 176.949 225.678 176.949Z" fill="#0094FF"/>
<path d="M246.224 177C243.918 177 241.996 176.679 240.458 176.037C238.954 175.362 237.75 174.45 236.848 173.301C235.945 172.153 235.31 170.819 234.942 169.299C234.574 167.745 234.39 166.09 234.39 164.333C234.39 162.307 234.624 160.331 235.092 158.405C235.594 156.446 236.43 154.707 237.6 153.187C238.77 151.667 240.307 150.451 242.213 149.539C244.152 148.593 246.559 148.12 249.434 148.12C253.646 148.12 256.654 149.167 258.459 151.261C260.298 153.322 261.217 156.227 261.217 159.976C261.217 161.023 261.134 162.188 260.967 163.472C260.833 164.722 260.549 165.972 260.114 167.221C259.713 168.471 259.145 169.687 258.409 170.869C257.707 172.052 256.805 173.099 255.702 174.011C254.598 174.923 253.261 175.649 251.69 176.189C250.152 176.73 248.33 177 246.224 177ZM248.581 154.859C247.311 154.859 246.291 155.196 245.522 155.872C244.787 156.514 244.219 157.308 243.817 158.253C243.45 159.165 243.199 160.145 243.065 161.192C242.965 162.205 242.915 163.067 242.915 163.776C242.915 166.005 243.266 167.644 243.968 168.691C244.67 169.738 245.673 170.261 246.977 170.261C248.147 170.261 249.099 169.89 249.835 169.147C250.604 168.404 251.189 167.508 251.59 166.461C252.024 165.414 252.308 164.316 252.442 163.168C252.609 162.02 252.693 161.057 252.693 160.28C252.693 158.591 252.375 157.274 251.74 156.328C251.138 155.348 250.085 154.859 248.581 154.859Z" fill="#0094FF"/>
<path d="M305.901 168.944C306.235 167.154 306.536 165.6 306.803 164.283C307.071 162.932 307.305 161.682 307.505 160.533C307.706 159.385 307.89 158.253 308.057 157.139C308.258 155.99 308.458 154.724 308.659 153.339C308.893 151.92 309.143 150.316 309.411 148.525C309.712 146.701 310.063 144.523 310.464 141.989C310.564 141.348 310.731 140.942 310.965 140.773C311.199 140.571 311.784 140.469 312.72 140.469C313.088 140.469 313.64 140.503 314.375 140.571C315.111 140.604 315.846 140.756 316.581 141.027C317.317 141.263 317.952 141.652 318.487 142.192C319.055 142.699 319.339 143.425 319.339 144.371C319.339 144.911 319.239 145.756 319.038 146.904C318.838 148.019 318.554 149.319 318.186 150.805C317.852 152.258 317.451 153.845 316.983 155.568C316.548 157.291 316.097 159.03 315.629 160.787C315.161 162.543 314.676 164.249 314.175 165.904C313.707 167.559 313.255 169.062 312.821 170.413C312.419 171.731 312.052 172.845 311.717 173.757C311.383 174.669 311.149 175.26 311.015 175.531C310.815 175.902 310.531 176.156 310.163 176.291C309.795 176.426 309.428 176.493 309.06 176.493H304.296C303.427 176.493 302.692 176.324 302.09 175.987C301.522 175.649 301.037 175.21 300.636 174.669C300.268 174.129 299.967 173.521 299.733 172.845C299.533 172.17 299.399 171.477 299.332 170.768L296.825 148.019C296.624 149.505 296.39 151.177 296.123 153.035C295.889 154.892 295.621 156.784 295.321 158.709C295.053 160.635 294.786 162.526 294.518 164.384C294.251 166.242 293.983 167.948 293.716 169.501C293.448 171.021 293.198 172.322 292.964 173.403C292.73 174.484 292.529 175.193 292.362 175.531C292.195 175.902 291.927 176.156 291.56 176.291C291.192 176.426 290.808 176.493 290.406 176.493H285.643C284.807 176.493 284.105 176.341 283.537 176.037C283.002 175.7 282.551 175.26 282.183 174.72C281.815 174.18 281.514 173.572 281.28 172.896C281.046 172.187 280.846 171.477 280.679 170.768C279.308 165.262 278.188 160.736 277.319 157.189C276.483 153.643 275.815 150.805 275.313 148.677C274.812 146.516 274.461 144.945 274.26 143.965C274.093 142.952 274.009 142.226 274.009 141.787C274.009 141.212 274.177 140.841 274.511 140.672C274.879 140.503 275.631 140.419 276.767 140.419C278.171 140.419 279.341 140.52 280.277 140.723C281.247 140.925 282.032 141.246 282.634 141.685C283.236 142.091 283.687 142.648 283.988 143.357C284.322 144.033 284.54 144.86 284.64 145.84C284.64 145.975 284.657 146.178 284.69 146.448C284.723 146.684 284.757 147.09 284.79 147.664C284.857 148.238 284.941 149.032 285.041 150.045C285.175 151.025 285.325 152.342 285.492 153.997C285.693 155.652 285.927 157.713 286.194 160.179C286.495 162.611 286.846 165.532 287.247 168.944C287.615 166.884 287.899 165.228 288.1 163.979C288.334 162.695 288.534 161.58 288.702 160.635C288.869 159.655 289.019 158.726 289.153 157.848C289.287 156.936 289.437 155.821 289.604 154.504C289.805 153.153 290.022 151.464 290.256 149.437C290.523 147.411 290.858 144.776 291.259 141.533C291.292 141.297 291.426 141.111 291.66 140.976C291.927 140.841 292.245 140.74 292.613 140.672C292.98 140.604 293.382 140.571 293.816 140.571C294.284 140.537 294.719 140.52 295.12 140.52C296.457 140.52 297.594 140.604 298.53 140.773C299.466 140.908 300.235 141.162 300.836 141.533C301.471 141.905 301.973 142.412 302.341 143.053C302.708 143.661 303.009 144.421 303.243 145.333C303.343 145.772 303.46 146.38 303.594 147.157C303.728 147.9 303.878 149.1 304.046 150.755C304.246 152.41 304.48 154.69 304.748 157.595C305.048 160.466 305.433 164.249 305.901 168.944Z" fill="#0094FF"/>
<path d="M332.311 177C330.004 177 328.082 176.679 326.544 176.037C325.04 175.362 323.837 174.45 322.934 173.301C322.031 172.153 321.396 170.819 321.029 169.299C320.661 167.745 320.477 166.09 320.477 164.333C320.477 162.307 320.711 160.331 321.179 158.405C321.68 156.446 322.516 154.707 323.686 153.187C324.856 151.667 326.394 150.451 328.299 149.539C330.238 148.593 332.645 148.12 335.52 148.12C339.732 148.12 342.741 149.167 344.546 151.261C346.385 153.322 347.304 156.227 347.304 159.976C347.304 161.023 347.22 162.188 347.053 163.472C346.919 164.722 346.635 165.972 346.201 167.221C345.8 168.471 345.231 169.687 344.496 170.869C343.794 172.052 342.891 173.099 341.788 174.011C340.685 174.923 339.348 175.649 337.777 176.189C336.239 176.73 334.417 177 332.311 177ZM334.668 154.859C333.397 154.859 332.378 155.196 331.609 155.872C330.873 156.514 330.305 157.308 329.904 158.253C329.536 159.165 329.286 160.145 329.152 161.192C329.052 162.205 329.001 163.067 329.001 163.776C329.001 166.005 329.352 167.644 330.054 168.691C330.756 169.738 331.759 170.261 333.063 170.261C334.233 170.261 335.186 169.89 335.921 169.147C336.69 168.404 337.275 167.508 337.676 166.461C338.111 165.414 338.395 164.316 338.529 163.168C338.696 162.02 338.779 161.057 338.779 160.28C338.779 158.591 338.462 157.274 337.827 156.328C337.225 155.348 336.172 154.859 334.668 154.859Z" fill="#0094FF"/>
<path d="M367.244 160.736C367.043 160.736 366.809 160.736 366.542 160.736C366.308 160.702 366.074 160.668 365.84 160.635C365.606 160.567 365.405 160.5 365.238 160.432C365.071 160.331 364.987 160.212 364.987 160.077C364.987 159.638 365.004 159.233 365.037 158.861C365.071 158.49 365.088 158.101 365.088 157.696C365.088 156.953 364.987 156.345 364.787 155.872C364.586 155.399 364.185 155.163 363.583 155.163C362.647 155.163 361.862 155.788 361.227 157.037C360.625 158.253 360.24 160.094 360.073 162.56C360.006 163.641 359.906 164.874 359.772 166.259C359.672 167.61 359.572 168.927 359.471 170.211C359.371 171.46 359.288 172.575 359.221 173.555C359.154 174.534 359.12 175.176 359.12 175.48C359.12 175.818 359.003 176.071 358.769 176.24C358.535 176.409 358.285 176.493 358.017 176.493H356.212C355.176 176.493 354.323 176.392 353.655 176.189C353.02 175.953 352.502 175.632 352.1 175.227C351.733 174.821 351.465 174.332 351.298 173.757C351.164 173.149 351.097 172.457 351.097 171.68C351.097 171.173 351.114 170.464 351.148 169.552C351.215 168.606 351.315 167.323 351.449 165.701C351.582 164.046 351.733 161.969 351.9 159.469C352.1 156.936 352.334 153.812 352.602 150.096C352.669 149.116 353.02 148.627 353.655 148.627H355.61C356.546 148.627 357.332 148.728 357.967 148.931C358.602 149.133 359.12 149.42 359.522 149.792C359.923 150.13 360.207 150.535 360.374 151.008C360.575 151.481 360.708 151.971 360.775 152.477C361.176 151.7 361.644 151.042 362.179 150.501C362.748 149.927 363.333 149.471 363.934 149.133C364.536 148.762 365.154 148.508 365.79 148.373C366.425 148.204 367.01 148.12 367.545 148.12C368.18 148.12 368.815 148.238 369.45 148.475C370.119 148.711 370.72 149.066 371.255 149.539C371.79 150.012 372.208 150.62 372.509 151.363C372.843 152.106 373.01 152.984 373.01 153.997C373.01 154.909 372.877 155.771 372.609 156.581C372.342 157.392 371.957 158.118 371.456 158.76C370.954 159.368 370.336 159.858 369.601 160.229C368.899 160.567 368.113 160.736 367.244 160.736Z" fill="#0094FF"/>
<path d="M380.859 176.949C378.786 176.949 377.298 176.392 376.396 175.277C375.493 174.163 375.042 172.322 375.042 169.755C375.042 169.349 375.059 168.843 375.092 168.235C375.159 167.627 375.226 166.85 375.293 165.904C375.393 164.924 375.51 163.725 375.644 162.307C375.777 160.888 375.911 159.165 376.045 157.139C376.212 155.112 376.379 152.731 376.546 149.995C376.747 147.259 376.947 144.084 377.148 140.469C377.181 139.726 377.265 139.287 377.399 139.152C377.499 139.051 377.766 139 378.201 139H380.157C381.159 139 381.995 139.118 382.664 139.355C383.332 139.591 383.867 139.912 384.268 140.317C384.669 140.723 384.954 141.196 385.121 141.736C385.288 142.243 385.371 142.783 385.371 143.357C385.371 144.033 385.321 145.012 385.221 146.296C385.154 147.546 385.054 148.964 384.92 150.552C384.786 152.14 384.653 153.795 384.519 155.517C384.385 157.24 384.252 158.895 384.118 160.483C383.984 162.036 383.867 163.438 383.767 164.688C383.7 165.938 383.667 166.884 383.667 167.525C383.667 168.404 383.817 169.028 384.118 169.4C384.452 169.772 384.803 170.042 385.171 170.211C385.539 170.346 385.873 170.447 386.174 170.515C386.508 170.548 386.675 170.65 386.675 170.819C386.675 171.562 386.592 172.305 386.424 173.048C386.257 173.757 385.956 174.416 385.522 175.024C385.087 175.598 384.486 176.071 383.717 176.443C382.981 176.78 382.029 176.949 380.859 176.949Z" fill="#0094FF"/>
<path d="M399.349 177C398.046 177 396.792 176.764 395.589 176.291C394.419 175.818 393.382 175.075 392.48 174.061C391.611 173.048 390.909 171.764 390.374 170.211C389.872 168.657 389.622 166.782 389.622 164.587C389.622 163.607 389.688 162.526 389.822 161.344C389.956 160.128 390.19 158.912 390.524 157.696C390.858 156.48 391.326 155.298 391.928 154.149C392.53 153.001 393.282 151.988 394.185 151.109C395.121 150.197 396.224 149.471 397.494 148.931C398.798 148.39 400.319 148.12 402.057 148.12C403.729 148.12 405.066 148.424 406.069 149.032C407.105 149.606 407.757 150.62 408.024 152.072C408.091 150.755 408.158 149.606 408.225 148.627C408.292 147.647 408.342 146.735 408.375 145.891C408.442 145.046 408.509 144.202 408.576 143.357C408.643 142.513 408.71 141.55 408.776 140.469C408.81 139.726 408.893 139.287 409.027 139.152C409.094 139.084 409.178 139.051 409.278 139.051C409.378 139.017 409.562 139 409.829 139H411.785C412.788 139 413.624 139.118 414.292 139.355C414.961 139.591 415.496 139.912 415.897 140.317C416.298 140.723 416.582 141.196 416.749 141.736C416.916 142.243 417 142.783 417 143.357C417 143.357 416.967 143.78 416.9 144.624C416.833 145.468 416.749 146.6 416.649 148.019C416.549 149.404 416.432 150.991 416.298 152.781C416.164 154.572 416.031 156.429 415.897 158.355C415.763 160.246 415.629 162.138 415.496 164.029C415.362 165.887 415.228 167.61 415.095 169.197C414.961 170.751 414.844 172.102 414.744 173.251C414.677 174.365 414.627 175.108 414.593 175.48C414.526 175.885 414.443 176.156 414.342 176.291C414.242 176.426 413.958 176.493 413.49 176.493H411.685C410.983 176.493 410.314 176.443 409.679 176.341C409.077 176.206 408.542 176.004 408.074 175.733C407.64 175.429 407.289 175.041 407.021 174.568C406.787 174.061 406.67 173.42 406.67 172.643C406.069 173.926 405.149 174.973 403.912 175.784C402.709 176.595 401.188 177 399.349 177ZM403.712 154.859C402.007 154.859 400.737 155.619 399.901 157.139C399.099 158.625 398.698 160.635 398.698 163.168C398.698 164.046 398.748 164.908 398.848 165.752C398.982 166.596 399.199 167.356 399.5 168.032C399.801 168.708 400.202 169.248 400.703 169.653C401.238 170.059 401.907 170.261 402.709 170.261C404.146 170.261 405.35 169.552 406.319 168.133C407.289 166.715 407.774 164.485 407.774 161.445C407.774 160.601 407.723 159.79 407.623 159.013C407.523 158.203 407.322 157.493 407.021 156.885C406.721 156.277 406.303 155.788 405.768 155.416C405.233 155.044 404.548 154.859 403.712 154.859Z" fill="#0094FF"/>
</svg>
