<svg width="87" height="87" viewBox="0 0 87 87" fill="none" xmlns="http://www.w3.org/2000/svg">
<circle cx="43.5" cy="43.5" r="41.5" stroke="#0094FF" stroke-width="4"/>
<path d="M32.54 57C31.196 57 30.236 56.736 29.66 56.208C29.084 55.68 28.796 54.924 28.796 53.94C28.796 53.412 28.844 52.476 28.94 51.132C29.036 49.788 29.144 48.276 29.264 46.596H22.856L22.136 56.46C22.112 56.652 22.064 56.796 21.992 56.892C21.92 56.964 21.776 57 21.56 57H19.58C18.236 57 17.276 56.736 16.7 56.208C16.124 55.68 15.836 54.924 15.836 53.94C15.836 53.46 15.872 52.644 15.944 51.492C16.016 50.316 16.112 48.984 16.232 47.496C16.352 46.008 16.472 44.436 16.592 42.78C16.712 41.124 16.832 39.564 16.952 38.1C17.072 36.636 17.168 35.352 17.24 34.248C17.312 33.144 17.348 32.388 17.348 31.98C17.348 31.62 17.54 31.44 17.924 31.44H19.904C21.368 31.44 22.352 31.752 22.856 32.376C23.36 33 23.612 33.924 23.612 35.148C23.612 35.34 23.576 36.024 23.504 37.2C23.432 38.352 23.336 39.744 23.216 41.376H29.66C29.732 40.32 29.804 39.288 29.876 38.28C29.972 37.272 30.044 36.348 30.092 35.508C30.164 34.668 30.212 33.948 30.236 33.348C30.284 32.724 30.308 32.268 30.308 31.98C30.308 31.62 30.5 31.44 30.884 31.44H32.864C34.328 31.44 35.312 31.752 35.816 32.376C36.32 33 36.572 33.924 36.572 35.148C36.572 35.268 36.548 35.652 36.5 36.3C36.476 36.948 36.428 37.764 36.356 38.748C36.284 39.732 36.2 40.836 36.104 42.06C36.032 43.26 35.948 44.496 35.852 45.768C35.78 47.04 35.696 48.288 35.6 49.512C35.528 50.712 35.456 51.804 35.384 52.788C35.312 53.772 35.252 54.6 35.204 55.272C35.156 55.92 35.12 56.316 35.096 56.46C35.072 56.652 35.024 56.796 34.952 56.892C34.88 56.964 34.736 57 34.52 57H32.54ZM62.3058 51.636C62.5458 50.364 62.7618 49.26 62.9538 48.324C63.1458 47.364 63.3138 46.476 63.4578 45.66C63.6018 44.844 63.7338 44.04 63.8538 43.248C63.9978 42.432 64.1418 41.532 64.2858 40.548C64.4538 39.54 64.6338 38.4 64.8258 37.128C65.0418 35.832 65.2938 34.284 65.5818 32.484C65.6538 32.028 65.7738 31.74 65.9418 31.62C66.1098 31.476 66.5298 31.404 67.2018 31.404C67.4658 31.404 67.8618 31.428 68.3898 31.476C68.9178 31.5 69.4458 31.608 69.9738 31.8C70.5018 31.968 70.9578 32.244 71.3418 32.628C71.7498 32.988 71.9538 33.504 71.9538 34.176C71.9538 34.56 71.8818 35.16 71.7378 35.976C71.5938 36.768 71.3898 37.692 71.1258 38.748C70.8858 39.78 70.5978 40.908 70.2618 42.132C69.9498 43.356 69.6258 44.592 69.2898 45.84C68.9538 47.088 68.6058 48.3 68.2458 49.476C67.9098 50.652 67.5858 51.72 67.2738 52.68C66.9858 53.616 66.7218 54.408 66.4818 55.056C66.2418 55.704 66.0738 56.124 65.9778 56.316C65.8338 56.58 65.6298 56.76 65.3658 56.856C65.1018 56.952 64.8378 57 64.5738 57H61.1538C60.5298 57 60.0018 56.88 59.5698 56.64C59.1618 56.4 58.8138 56.088 58.5258 55.704C58.2618 55.32 58.0458 54.888 57.8778 54.408C57.7338 53.928 57.6378 53.436 57.5898 52.932L55.7898 36.768C55.6458 37.824 55.4778 39.012 55.2858 40.332C55.1178 41.652 54.9258 42.996 54.7098 44.364C54.5178 45.732 54.3258 47.076 54.1338 48.396C53.9418 49.716 53.7498 50.928 53.5578 52.032C53.3658 53.112 53.1858 54.036 53.0178 54.804C52.8498 55.572 52.7058 56.076 52.5858 56.316C52.4658 56.58 52.2738 56.76 52.0098 56.856C51.7458 56.952 51.4698 57 51.1818 57H47.7618C47.1618 57 46.6578 56.892 46.2498 56.676C45.8658 56.436 45.5418 56.124 45.2778 55.74C45.0138 55.356 44.7978 54.924 44.6298 54.444C44.4618 53.94 44.3178 53.436 44.1978 52.932C43.2138 49.02 42.4098 45.804 41.7858 43.284C41.1858 40.764 40.7058 38.748 40.3458 37.236C39.9858 35.7 39.7338 34.584 39.5898 33.888C39.4698 33.168 39.4098 32.652 39.4098 32.34C39.4098 31.932 39.5298 31.668 39.7698 31.548C40.0338 31.428 40.5738 31.368 41.3898 31.368C42.3978 31.368 43.2378 31.44 43.9098 31.584C44.6058 31.728 45.1698 31.956 45.6018 32.268C46.0338 32.556 46.3578 32.952 46.5738 33.456C46.8138 33.936 46.9698 34.524 47.0418 35.22C47.0418 35.316 47.0538 35.46 47.0778 35.652C47.1018 35.82 47.1258 36.108 47.1498 36.516C47.1978 36.924 47.2578 37.488 47.3298 38.208C47.4258 38.904 47.5338 39.84 47.6538 41.016C47.7978 42.192 47.9658 43.656 48.1578 45.408C48.3738 47.136 48.6258 49.212 48.9138 51.636C49.1778 50.172 49.3818 48.996 49.5258 48.108C49.6938 47.196 49.8378 46.404 49.9578 45.732C50.0778 45.036 50.1858 44.376 50.2818 43.752C50.3778 43.104 50.4858 42.312 50.6058 41.376C50.7498 40.416 50.9058 39.216 51.0738 37.776C51.2658 36.336 51.5058 34.464 51.7938 32.16C51.8178 31.992 51.9138 31.86 52.0818 31.764C52.2738 31.668 52.5018 31.596 52.7658 31.548C53.0298 31.5 53.3178 31.476 53.6298 31.476C53.9658 31.452 54.2778 31.44 54.5658 31.44C55.5258 31.44 56.3418 31.5 57.0138 31.62C57.6858 31.716 58.2378 31.896 58.6698 32.16C59.1258 32.424 59.4858 32.784 59.7498 33.24C60.0138 33.672 60.2298 34.212 60.3978 34.86C60.4698 35.172 60.5538 35.604 60.6498 36.156C60.7458 36.684 60.8538 37.536 60.9738 38.712C61.1178 39.888 61.2858 41.508 61.4778 43.572C61.6938 45.612 61.9698 48.3 62.3058 51.636Z" fill="#0094FF"/>
</svg>
