<svg width="87" height="87" viewBox="0 0 87 87" fill="none" xmlns="http://www.w3.org/2000/svg">
<path fill-rule="evenodd" clip-rule="evenodd" d="M43.5 87C67.5244 87 87 67.5244 87 43.5C87 19.4756 67.5244 0 43.5 0C19.4756 0 0 19.4756 0 43.5C0 67.5244 19.4756 87 43.5 87ZM29.66 56.208C30.236 56.736 31.196 57 32.54 57H34.52C34.736 57 34.88 56.964 34.952 56.892C35.024 56.796 35.072 56.652 35.096 56.46C35.12 56.316 35.156 55.92 35.204 55.272C35.252 54.6 35.312 53.772 35.384 52.788C35.456 51.804 35.528 50.712 35.6 49.512C35.696 48.288 35.78 47.04 35.852 45.768C35.948 44.496 36.032 43.26 36.104 42.06C36.2 40.836 36.284 39.732 36.356 38.748C36.428 37.764 36.476 36.948 36.5 36.3C36.548 35.652 36.572 35.268 36.572 35.148C36.572 33.924 36.32 33 35.816 32.376C35.312 31.752 34.328 31.44 32.864 31.44H30.884C30.5 31.44 30.308 31.62 30.308 31.98C30.308 32.268 30.284 32.724 30.236 33.348C30.212 33.948 30.164 34.668 30.092 35.508C30.044 36.348 29.972 37.272 29.876 38.28C29.804 39.288 29.732 40.32 29.66 41.376H23.216C23.336 39.744 23.432 38.352 23.504 37.2C23.576 36.024 23.612 35.34 23.612 35.148C23.612 33.924 23.36 33 22.856 32.376C22.352 31.752 21.368 31.44 19.904 31.44H17.924C17.54 31.44 17.348 31.62 17.348 31.98C17.348 32.388 17.312 33.144 17.24 34.248C17.168 35.352 17.072 36.636 16.952 38.1C16.832 39.564 16.712 41.124 16.592 42.78C16.472 44.436 16.352 46.008 16.232 47.496C16.112 48.984 16.016 50.316 15.944 51.492C15.872 52.644 15.836 53.46 15.836 53.94C15.836 54.924 16.124 55.68 16.7 56.208C17.276 56.736 18.236 57 19.58 57H21.56C21.776 57 21.92 56.964 21.992 56.892C22.064 56.796 22.112 56.652 22.136 56.46L22.856 46.596H29.264L28.94 51.132C28.844 52.476 28.796 53.412 28.796 53.94C28.796 54.924 29.084 55.68 29.66 56.208ZM62.9538 48.324C62.7618 49.26 62.5458 50.364 62.3058 51.636C61.9698 48.3 61.6938 45.612 61.4778 43.572C61.2858 41.508 61.1178 39.888 60.9738 38.712C60.8538 37.536 60.7458 36.684 60.6498 36.156C60.5538 35.604 60.4698 35.172 60.3978 34.86C60.2298 34.212 60.0138 33.672 59.7498 33.24C59.4858 32.784 59.1258 32.424 58.6698 32.16C58.2378 31.896 57.6858 31.716 57.0138 31.62C56.3418 31.5 55.5258 31.44 54.5658 31.44C54.2778 31.44 53.9658 31.452 53.6298 31.476C53.3178 31.476 53.0298 31.5 52.7658 31.548C52.5018 31.596 52.2738 31.668 52.0818 31.764C51.9138 31.86 51.8178 31.992 51.7938 32.16C51.5058 34.464 51.2658 36.336 51.0738 37.776C50.9058 39.216 50.7498 40.416 50.6058 41.376C50.4858 42.312 50.3778 43.104 50.2818 43.752C50.1858 44.376 50.0778 45.036 49.9578 45.732C49.8378 46.404 49.6938 47.196 49.5258 48.108C49.3818 48.996 49.1778 50.172 48.9138 51.636C48.6258 49.212 48.3738 47.136 48.1578 45.408C47.9658 43.656 47.7978 42.192 47.6538 41.016C47.5338 39.84 47.4258 38.904 47.3298 38.208C47.2578 37.488 47.1978 36.924 47.1498 36.516C47.1258 36.108 47.1018 35.82 47.0778 35.652C47.0538 35.46 47.0418 35.316 47.0418 35.22C46.9698 34.524 46.8138 33.936 46.5738 33.456C46.3578 32.952 46.0338 32.556 45.6018 32.268C45.1698 31.956 44.6058 31.728 43.9098 31.584C43.2378 31.44 42.3978 31.368 41.3898 31.368C40.5738 31.368 40.0338 31.428 39.7698 31.548C39.5298 31.668 39.4098 31.932 39.4098 32.34C39.4098 32.652 39.4698 33.168 39.5898 33.888C39.7338 34.584 39.9858 35.7 40.3458 37.236L41.7858 43.284C42.4098 45.804 43.2138 49.02 44.1978 52.932C44.3178 53.436 44.4618 53.94 44.6298 54.444C44.7978 54.924 45.0138 55.356 45.2778 55.74C45.5418 56.124 45.8658 56.436 46.2498 56.676C46.6578 56.892 47.1618 57 47.7618 57H51.1818C51.4698 57 51.7458 56.952 52.0098 56.856C52.2738 56.76 52.4658 56.58 52.5858 56.316C52.7058 56.076 52.8498 55.572 53.0178 54.804C53.1858 54.036 53.3658 53.112 53.5578 52.032C53.7498 50.928 53.9418 49.716 54.1338 48.396C54.3258 47.076 54.5178 45.732 54.7098 44.364C54.9258 42.996 55.1178 41.652 55.2858 40.332C55.4778 39.012 55.6458 37.824 55.7898 36.768L57.5898 52.932C57.6378 53.436 57.7338 53.928 57.8778 54.408C58.0458 54.888 58.2618 55.32 58.5258 55.704C58.8138 56.088 59.1618 56.4 59.5698 56.64C60.0018 56.88 60.5298 57 61.1538 57H64.5738C64.8378 57 65.1018 56.952 65.3658 56.856C65.6298 56.76 65.8338 56.58 65.9778 56.316C66.0738 56.124 66.2418 55.704 66.4818 55.056C66.7218 54.408 66.9858 53.616 67.2738 52.68C67.5858 51.72 67.9098 50.652 68.2458 49.476C68.6058 48.3 68.9538 47.088 69.2898 45.84C69.6258 44.592 69.9498 43.356 70.2618 42.132C70.5978 40.908 70.8858 39.78 71.1258 38.748C71.3898 37.692 71.5938 36.768 71.7378 35.976C71.8818 35.16 71.9538 34.56 71.9538 34.176C71.9538 33.504 71.7498 32.988 71.3418 32.628C70.9578 32.244 70.5018 31.968 69.9738 31.8C69.4458 31.608 68.9178 31.5 68.3898 31.476C67.8618 31.428 67.4658 31.404 67.2018 31.404C66.5298 31.404 66.1098 31.476 65.9418 31.62C65.7738 31.74 65.6538 32.028 65.5818 32.484C65.2938 34.284 65.0418 35.832 64.8258 37.128C64.6338 38.4 64.4538 39.54 64.2858 40.548C64.1418 41.532 63.9978 42.432 63.8538 43.248C63.7338 44.04 63.6018 44.844 63.4578 45.66C63.3138 46.476 63.1458 47.364 62.9538 48.324Z" fill="black"/>
</svg>
